<?xml version="1.0" encoding="UTF-8"?>
<!DOCTYPE svg PUBLIC "-//W3C//DTD SVG 1.1//EN" "http://www.w3.org/Graphics/SVG/1.1/DTD/svg11.dtd">
<!-- Creator: CorelDRAW X5 -->
<svg xmlns="http://www.w3.org/2000/svg" xml:space="preserve" width="174.12mm" height="130mm" style="shape-rendering:geometricPrecision; text-rendering:geometricPrecision; image-rendering:optimizeQuality; fill-rule:evenodd; clip-rule:evenodd"
viewBox="0 0 17412 13000"
 xmlns:xlink="http://www.w3.org/1999/xlink">
 <defs>
  <style type="text/css">
   <![CDATA[
    .fil1 {fill:#EE0000}
    .fil0 {fill:#F2C102}
    .fil2 {fill:#FFCC01}
   ]]>
  </style>
 </defs>
 <g id="Layer_x0020_1">
  <metadata id="CorelCorpID_0Corel-Layer"/>
  <path class="fil0" d="M7154 6536c1088,964 1953,911 3115,0 2414,2086 4729,4217 7143,6303 0,38 0,121 0,158 -5804,1 -11608,2 -17412,3 0,-33 0,-109 0,-142 2413,-2095 4741,-4227 7154,-6322z"/>
  <path class="fil1" d="M7240 6614c1039,898 1765,1024 2930,12 2414,-2187 4828,-4373 7242,-6560 0,-22 0,-44 0,-65 -5804,0 -11608,0 -17412,0 0,26 0,51 0,77 2413,2179 4827,4358 7240,6537z"/>
  <polygon class="fil2" points="7240,6614 0,12900 0,77 "/>
  <polygon class="fil2" points="10170,6625 17412,65 17412,12884 "/>
 </g>
</svg>
